<svg xmlns="http://www.w3.org/2000/svg" viewBox="0 0 1200 300" fill="rgba(255,255,255,0.5)">
  <!-- South Beach / left side -->
  <rect x="20" y="180" width="25" height="120" rx="1"/>
  <rect x="50" y="140" width="20" height="160" rx="1"/>
  <rect x="75" y="160" width="30" height="140" rx="1"/>
  <rect x="110" y="120" width="18" height="180" rx="1"/>
  <rect x="135" y="100" width="22" height="200" rx="1"/>
  <rect x="162" y="130" width="28" height="170" rx="1"/>
  <rect x="195" y="80" width="20" height="220" rx="1"/>
  <rect x="220" y="150" width="25" height="150" rx="1"/>
  <!-- Palm trees -->
  <line x1="260" y1="300" x2="265" y2="200" stroke="rgba(255,255,255,0.3)" stroke-width="3"/>
  <ellipse cx="275" cy="195" rx="25" ry="10" fill="rgba(255,255,255,0.2)"/>
  <line x1="290" y1="300" x2="288" y2="210" stroke="rgba(255,255,255,0.3)" stroke-width="3"/>
  <ellipse cx="298" cy="205" rx="22" ry="9" fill="rgba(255,255,255,0.2)"/>
  <!-- Downtown / center -->
  <rect x="350" y="120" width="30" height="180" rx="1"/>
  <rect x="385" y="60" width="25" height="240" rx="1"/>
  <rect x="415" y="90" width="35" height="210" rx="1"/>
  <rect x="455" y="40" width="28" height="260" rx="1"/>
  <rect x="488" y="20" width="22" height="280" rx="1"/><!-- tallest - Panorama Tower -->
  <rect x="515" y="50" width="30" height="250" rx="1"/>
  <rect x="550" y="70" width="25" height="230" rx="1"/>
  <rect x="580" y="30" width="20" height="270" rx="1"/>
  <rect x="605" y="80" width="32" height="220" rx="1"/>
  <rect x="642" y="55" width="24" height="245" rx="1"/>
  <rect x="670" y="100" width="28" height="200" rx="1"/>
  <!-- Brickell -->
  <rect x="720" y="60" width="22" height="240" rx="1"/>
  <rect x="747" y="45" width="26" height="255" rx="1"/>
  <rect x="778" y="75" width="20" height="225" rx="1"/>
  <rect x="803" y="90" width="30" height="210" rx="1"/>
  <rect x="838" y="110" width="24" height="190" rx="1"/>
  <rect x="867" y="130" width="18" height="170" rx="1"/>
  <!-- Right side / Key Biscayne -->
  <rect x="920" y="170" width="22" height="130" rx="1"/>
  <rect x="947" y="190" width="18" height="110" rx="1"/>
  <rect x="970" y="200" width="25" height="100" rx="1"/>
  <rect x="1000" y="210" width="20" height="90" rx="1"/>
  <!-- More palms right -->
  <line x1="1050" y1="300" x2="1055" y2="210" stroke="rgba(255,255,255,0.3)" stroke-width="3"/>
  <ellipse cx="1065" cy="205" rx="22" ry="9" fill="rgba(255,255,255,0.2)"/>
  <line x1="1090" y1="300" x2="1088" y2="220" stroke="rgba(255,255,255,0.3)" stroke-width="3"/>
  <ellipse cx="1098" cy="215" rx="20" ry="8" fill="rgba(255,255,255,0.2)"/>
  <!-- Water line -->
  <rect x="0" y="295" width="1200" height="5" fill="rgba(255,255,255,0.15)" rx="2"/>
</svg>